<svg width="92" height="112" viewBox="0 0 92 112" fill="none" xmlns="http://www.w3.org/2000/svg">
<circle cx="35.1579" cy="17.7895" r="16.7895" stroke="white" stroke-width="2"/>
<circle cx="47.8947" cy="16.6316" r="13.3158" stroke="white" stroke-width="2"/>
<path d="M1 18.3684H67V111H1V18.3684Z" fill="white"/>
<path d="M67 18.3684V111L78.8684 86.6842V21.5526L67 18.3684Z" fill="white"/>
<path d="M90.7369 97.1052V24.7368L78.8684 21.5526V86.6842L90.7369 97.1052Z" fill="white"/>
<path d="M67 111L90.7369 97.1052L78.8684 86.6842L67 111Z" fill="white"/>
<path d="M67 18.3684H1V111H67M67 18.3684V111M67 18.3684L78.8684 21.5526M67 111L90.7369 97.1052M67 111L78.8684 86.6842M90.7369 97.1052V24.7368L78.8684 21.5526M90.7369 97.1052L78.8684 86.6842M78.8684 21.5526V86.6842" stroke="#FC6C1B" stroke-width="2"/>
</svg>
