<svg width="241" height="195" viewBox="0 0 241 195" fill="none" xmlns="http://www.w3.org/2000/svg">
<g id="Group 1">
<mask id="mask0_216_10" style="mask-type:alpha" maskUnits="userSpaceOnUse" x="0" y="0" width="241" height="195">
<path id="vlogo 1 (Traced)" fill-rule="evenodd" clip-rule="evenodd" d="M0 97.5V195H120.5H241V97.5V0H120.5H0V97.5ZM140.5 23.404C153.218 27.708 162.451 33.451 172 43C186.787 57.787 193.887 73.722 194.763 94.089C195.347 107.666 194.09 116.239 189.934 127.014C180.606 151.204 158.385 170.208 133.183 175.549C124.613 177.365 108.387 177.365 99.817 175.549C74.636 170.212 52.371 151.182 43.093 127.067C39.335 117.3 38 109.811 38 98.5C38 87.189 39.335 79.7 43.093 69.933C50.586 50.458 66.683 33.981 86.248 25.76C97.425 21.064 103.904 19.997 119 20.367C130.485 20.648 133.694 21.102 140.5 23.404ZM103.763 24.964C79.011 29.491 59.117 45.119 48.501 68.378C43.745 78.797 42.514 84.99 42.514 98.5C42.514 112.027 43.744 118.202 48.525 128.675C56.7 146.584 68.434 158.309 86.378 166.499C96.797 171.255 102.99 172.486 116.5 172.486C130.812 172.486 136.54 171.231 148.5 165.477C164.727 157.671 175.671 146.727 183.477 130.5C189.244 118.513 190.489 112.814 190.468 98.5C190.447 84.411 188.841 77.264 183.055 65.5C173.881 46.847 157.898 33.35 137.5 27.028C129.646 24.594 111.769 23.5 103.763 24.964ZM138.901 53.634L147.669 61.268L145.584 73.09C144.438 79.592 143.05 85.338 142.5 85.86C141.95 86.381 132.957 91.552 122.516 97.35L103.531 107.893L100.764 103.446C99.242 101.001 97.381 99 96.628 99C95.856 99 94.701 97.003 93.977 94.419C93.272 91.899 91.999 89.142 91.15 88.292C89.653 86.796 86.133 64.453 86.04 55.859L86 52.217L97.75 50.458C104.213 49.491 112.875 48.138 117 47.452C129.709 45.339 129.213 45.199 138.901 53.634ZM133.247 61.153C131.872 62.528 133.368 66 135.335 66C137.645 66 138.986 63.843 137.918 61.847C136.792 59.742 134.934 59.466 133.247 61.153ZM136.743 77.812L134.194 81.664L114.229 84.542L94.264 87.419L95.726 91.71C96.53 94.069 97.483 95.987 97.844 95.971C98.205 95.955 107.236 92.917 117.914 89.221L137.329 82.5L138.668 78.587C140.451 73.38 139.839 73.133 136.743 77.812ZM140.202 81.318C138.969 84.728 138.686 84.865 119.976 91.138C109.539 94.637 101.01 97.95 101.022 98.5C101.035 99.05 101.873 100.577 102.885 101.894L104.726 104.288L122.447 94.487C135.596 87.215 140.414 84.042 141.117 82.191C141.639 80.819 141.928 79.283 141.759 78.778C141.591 78.272 140.89 79.415 140.202 81.318ZM79.67 119.75C80.532 121.813 81.674 124.625 82.207 126C83.12 128.357 83.32 128.142 85.694 122.25C87.079 118.813 88.614 116 89.106 116C90.316 116 90.365 115.806 87.198 123.532C85.658 127.292 83.92 130.527 83.337 130.721C82.754 130.915 80.895 127.683 79.207 123.537C77.519 119.392 76.579 116 77.12 116C77.66 116 78.808 117.688 79.67 119.75ZM95 123.5C95 127.833 94.578 131 94 131C93.422 131 93 127.833 93 123.5C93 119.167 93.422 116 94 116C94.578 116 95 119.167 95 123.5ZM110.506 118.006C111.504 119.11 111.99 120.343 111.586 120.748C111.181 121.152 110.411 120.7 109.875 119.742C108.649 117.551 103.694 117.449 101.571 119.571C99.556 121.587 99.556 125.413 101.571 127.429C103.694 129.551 108.649 129.449 109.875 127.258C110.411 126.3 111.181 125.848 111.586 126.252C113.029 127.696 108.737 131 105.418 131C101.701 131 98 127.258 98 123.5C98 122.273 98.933 120.084 100.073 118.635C102.663 115.342 107.813 115.031 110.506 118.006ZM125.5 117C125.16 117.55 124.009 118 122.941 118C121.219 118 121 118.733 121 124.5C121 128.167 120.564 131 120 131C119.436 131 119 128.167 119 124.5C119 118.233 118.91 118 116.5 118C115.125 118 114 117.55 114 117C114 116.443 116.686 116 120.059 116C123.844 116 125.886 116.375 125.5 117ZM138.455 116.621C140.854 117.542 142.886 122.147 142.284 125.297C141.626 128.739 138.513 131 134.432 131C130.759 131 128.273 128.613 127.4 124.251C126.311 118.806 132.686 114.407 138.455 116.621ZM155.709 118.677C157.003 120.636 156.935 121.065 155.034 122.966L152.92 125.08L155.028 128.04C156.487 130.089 156.73 130.999 155.818 130.997C155.093 130.996 153.6 129.647 152.5 128C149.925 124.145 148 124.145 148 128C148 129.65 147.55 131 147 131C146.422 131 146 127.814 146 123.443V115.885L150.135 116.193C153.054 116.41 154.694 117.14 155.709 118.677ZM130.333 120.615C128.798 122.958 128.773 123.505 130.091 125.865C131.732 128.802 136.207 129.903 138.56 127.95C140.306 126.501 140.461 120.861 138.8 119.2C136.637 117.037 132.191 117.78 130.333 120.615ZM148 120.5C148 122.611 148.467 123 151 123C153.533 123 154 122.611 154 120.5C154 118.389 153.533 118 151 118C148.467 118 148 118.389 148 120.5ZM85.476 136.619C87.556 138.698 86.779 139.504 84.23 137.911C83.149 137.237 81.497 136.979 80.559 137.339C77.871 138.371 79.176 141.289 82.739 142.212C85.057 142.813 86.162 143.797 86.635 145.681C87.864 150.578 80.581 153.095 77.58 148.81C75.61 145.998 76.418 145.163 78.919 147.427C81.302 149.583 84.5 149.119 84.5 146.618C84.5 145.38 83.336 144.386 81 143.631C78.454 142.808 77.406 141.834 77.155 140.056C76.542 135.715 82.225 133.368 85.476 136.619ZM101 136C101 136.55 99.875 137 98.5 137C96.071 137 96 137.2 96 144C96 148 95.571 151 95 151C94.429 151 94 148 94 144C94 137.2 93.929 137 91.5 137C90.125 137 89 136.55 89 136C89 135.444 91.667 135 95 135C98.333 135 101 135.444 101 136ZM106.737 148.137C107.305 148.705 108.834 149.019 110.135 148.835C112.281 148.531 112.528 147.944 112.805 142.5C113.238 133.978 115 132.958 115 141.229C115 145.921 114.541 148.316 113.429 149.429C111.765 151.092 108.295 151.475 106.313 150.214C104.546 149.091 103 144.37 103 140.102C103 133.814 104.46 134.412 105.103 140.962C105.434 144.341 106.17 147.57 106.737 148.137ZM129.611 137.342C135.332 142.262 131.387 151 123.444 151H120V143V135H123.444C125.614 135 127.896 135.866 129.611 137.342ZM138 143C138 147.667 137.583 151 137 151C136.417 151 136 147.667 136 143C136 138.333 136.417 135 137 135C137.583 135 138 138.333 138 143ZM154.545 137.455C160.965 143.874 153.092 154.331 145.071 150.038C144.083 149.509 142.708 147.709 142.016 146.038C138.742 138.136 148.525 131.434 154.545 137.455ZM122 143C122 148.686 122.127 149 124.429 149C127.676 149 130 146.497 130 143C130 139.503 127.676 137 124.429 137C122.127 137 122 137.314 122 143ZM144.974 139.026C142.749 141.251 142.863 144.925 145.245 147.795C147.104 150.036 152.255 148.828 153.969 145.75C155.344 143.281 155.344 142.719 153.968 140.25C151.975 136.671 147.886 136.114 144.974 139.026Z" fill="#362A2A"/>
</mask>
<g mask="url(#mask0_216_10)">
<circle id="Ellipse 2311" cx="116" cy="98" r="81" fill="#876464"/>
</g>
</g>
</svg>
